<svg xmlns="http://www.w3.org/2000/svg" xmlns:xlink="http://www.w3.org/1999/xlink" xmlns:fi="http://pattern.flaticon.com/" x="0" y="0" width="1920" height="1080" viewBox="0 0 2100 1181.25"><rect x="0px" y="0px" width="100%" height="100%" opacity="1" fill="#121212"/><defs><g transform="matrix(0.6091367658902018 -0.9572149504555179 0.9572149504555179 0.6091367658902018 87.10440070804466 225.8159753866663)" id="L1_0"><path d="m33.813 72q-1.1 0-2.212-.076a31.766 31.766 0 0 1 4.334-63.384 31.123 31.123 0 0 1 8.655 1.84 1 1 0 0 1 .595 1.279l-9.736 26.866 26.731-10.125a1 1 0 0 1 1.289.582 31.773 31.773 0 0 1 -29.656 43.018zm-.089-61.536a29.767 29.767 0 0 0 -22.39 49.331 29.754 29.754 0 0 0 52.114-17.533 29.554 29.554 0 0 0 -1.512-11.633l-27.814 10.538a1 1 0 0 1 -1.295-1.275l10.132-27.964a29.259 29.259 0 0 0 -7.159-1.393q-1.042-.071-2.076-.071z" fill="#242424"/><path d="m33.785 65.76q-.875 0-1.759-.06a25.534 25.534 0 1 1 10.443-49.491 1 1 0 0 1 .6 1.28l-7.62 21.036 20.9-7.924a1 1 0 0 1 1.289.58 25.326 25.326 0 0 1 1.6 10.792 25.561 25.561 0 0 1 -25.453 23.787zm-.034-49.07a23.535 23.535 0 1 0 23.488 25.147 23.308 23.308 0 0 0 -1.138-9l-21.979 8.33a1 1 0 0 1 -1.295-1.275l8.012-22.124a23.59 23.59 0 0 0 -5.466-1.023q-.816-.056-1.622-.056z" fill="#242424"/><path d="m65.011 24.219a1 1 0 0 1 -.936-.647 23.457 23.457 0 0 0 -13.975-13.801 1 1 0 0 1 -.6-1.282l2.117-5.831a1 1 0 0 1 1.278-.6 31.606 31.606 0 0 1 18.888 18.6 1 1 0 0 1 -.582 1.29l-5.832 2.2a1 1 0 0 1 -.358.071zm-13.3-15.97a25.449 25.449 0 0 1 13.863 13.688l3.963-1.5a29.6 29.6 0 0 0 -16.39-16.144z" fill="#242424"/><path d="m42.077 32.915a1 1 0 0 1 -.94-1.34l8.363-23.084a1 1 0 0 1 1.28-.6 25.453 25.453 0 0 1 15.166 14.974 1 1 0 0 1 -.581 1.289l-22.934 8.7a.994.994 0 0 1 -.354.061zm8.951-22.784-7.27 20.077 19.942-7.562a23.446 23.446 0 0 0 -12.672-12.515z" fill="#242424"/><path d="m45.105 11.826-1.722-1.016 1.74.986z" fill="#242424"/><path d="m31.389 27.915h-.068l-6.935-.474a1 1 0 0 1 -.668-1.674l3.764-4.1a.979.979 0 0 1 .8-.321 1 1 0 0 1 .753.428l3.171 4.571a1 1 0 0 1 -.821 1.57zm-4.79-2.33 2.782.19-1.272-1.834z" fill="#242424"/><path d="m49.864 47.4c-.11 0-.22 0-.331-.011a4.711 4.711 0 1 1 5.032-4.374 4.709 4.709 0 0 1 -4.7 4.385zm-.012-7.43a2.715 2.715 0 0 0 -.182 5.43 2.71 2.71 0 0 0 2.9-2.515 2.723 2.723 0 0 0 -2.529-2.9c-.063-.011-.126-.013-.188-.013z" fill="#242424"/><path d="m18.337 51.779c-.11 0-.221 0-.331-.011a4.711 4.711 0 1 1 5.032-4.374 4.711 4.711 0 0 1 -4.7 4.385zm-.012-7.429a2.715 2.715 0 1 0 1.793 4.764 2.678 2.678 0 0 0 .924-1.855 2.723 2.723 0 0 0 -2.529-2.9c-.063-.007-.125-.009-.188-.009z" fill="#242424"/><path d="m28.36 58.586-1.473-1.354 3.159-3.432-2.646-3.034 1.508-1.314 3.23 3.7a1 1 0 0 1 -.018 1.334z" fill="#242424"/><path d="m44.519 55.227h-.041l-7.141-.295a1 1 0 0 1 -.725-1.643l4-4.757a1 1 0 0 1 1.615.117l3.141 5.051a1 1 0 0 1 -.85 1.527zm-5.063-2.21 3.218.133-1.414-2.276z" fill="#242424"/><path d="m29.576 38.305-2-.137a2.667 2.667 0 0 0 -5.322-.364l-2-.136a4.668 4.668 0 0 1 9.314.637z" fill="#242424"/><path d="m33.399 43.987h4.631v2h-4.631z" transform="matrix(0.992 -0.13 0.13 0.992 -5.54 5.019)" fill="#242424"/><path d="m54.1 24.073c-.106 0-.214 0-.321-.011a4.585 4.585 0 1 1 .321.011zm-.012-7.208a2.6 2.6 0 1 0 2.6 2.781 2.6 2.6 0 0 0 -2.42-2.775q-.084-.006-.175-.006z" fill="#242424"/></g><g transform="matrix(0.11975195540846986 0.03991731648301535 -0.03991731648301535 0.11975195540846986 232.26350954648728 94.46452057091167)" id="L1_2"><path d="M496,224a24.014,24.014,0,0,0-12.371-20.985,232.04,232.04,0,0,0-455.258,0,23.985,23.985,0,0,0,1.869,42.9,47.906,47.906,0,0,0,2.593,70.544A7.958,7.958,0,0,0,32,320v26.707a27.991,27.991,0,0,0-1.254,49.951A48.976,48.976,0,0,0,16.3,419.835,8,8,0,0,0,24,430c1.3,0,2.511.052,3.669.138A154.6,154.6,0,0,0,57.753,493,8,8,0,0,0,64,496H448a8,8,0,0,0,6.247-3,154.765,154.765,0,0,0,30.079-62.86c1.159-.085,2.372-.138,3.674-.138a8,8,0,0,0,7.7-10.165,48.976,48.976,0,0,0-14.448-23.177A27.991,27.991,0,0,0,480,346.707V320a7.958,7.958,0,0,0-.833-3.539,47.914,47.914,0,0,0,2.6-70.546A24.028,24.028,0,0,0,496,224ZM116.742,82.878A216.06,216.06,0,0,1,466.644,200H45.356A216.464,216.464,0,0,1,116.742,82.878ZM40,232a8,8,0,0,1,0-16H472a8,8,0,0,1,0,16,31.8,31.8,0,0,0-13.509,3,7.891,7.891,0,0,0-.862.421A32.029,32.029,0,0,0,440,264v15.459a16.872,16.872,0,0,1-5.055,11.963A15.539,15.539,0,0,1,423.688,296,16.077,16.077,0,0,1,408,280a24.112,24.112,0,0,0-7.435-17.367,23.823,23.823,0,0,0-17.715-6.606A24.2,24.2,0,0,0,360,280.452V304a16.077,16.077,0,0,1-15.688,16,15.576,15.576,0,0,1-11.257-4.575A16.872,16.872,0,0,1,328,303.459V264a32.036,32.036,0,0,0-32-32Zm24,16h44.687L90.343,266.343a8,8,0,0,0,11.314,11.314L131.313,248h25.374l-18.344,18.343a8,8,0,0,0,11.314,11.314L179.313,248h25.374l-18.344,18.343a8,8,0,0,0,11.314,11.314L227.313,248h25.374l-18.344,18.343a8,8,0,0,0,11.314,11.314L275.313,248H296a15.925,15.925,0,0,1,4.127.559l-17.784,17.784a8,8,0,0,0,11.314,11.314l17.784-17.784A15.925,15.925,0,0,1,312,264v39.459A32.365,32.365,0,0,0,313.163,312H64a32,32,0,0,1,0-64Zm0,80H280v16H48V325.248A47.774,47.774,0,0,0,64,328Zm284,32a12,12,0,0,1,0,24H237.293a27.951,27.951,0,0,0,0-24Zm100.406,40a33.268,33.268,0,0,1,27.8,15.127c-9.732,2-16.021,6.339-21.746,10.287C447.5,430.211,442.006,434,430,434s-17.5-3.789-24.46-8.586C397.778,420.064,388.985,414,371.993,414s-25.785,6.064-33.543,11.414C331.5,430.211,326,434,313.992,434s-17.5-3.789-24.458-8.586C281.776,420.064,272.983,414,255.992,414s-25.783,6.064-33.54,11.415C215.5,430.211,210,434,198,434s-17.5-3.789-24.458-8.585C165.78,420.064,156.987,414,140,414s-25.784,6.064-33.542,11.414C99.5,430.211,94.006,434,82,434s-17.5-3.789-24.456-8.585c-5.725-3.949-12.013-8.286-21.744-10.288A33.268,33.268,0,0,1,63.594,400ZM44,384a12,12,0,0,1,0-24H212a12,12,0,0,1,0,24Zm400.087,96H67.913A138.653,138.653,0,0,1,45.97,436.886c.817.549,1.641,1.116,2.487,1.7C56.214,443.936,65.006,450,82,450s25.784-6.064,33.542-11.415C122.494,433.789,127.988,430,140,430s17.5,3.789,24.457,8.585C172.212,443.936,181.005,450,198,450s25.782-6.064,33.54-11.415c6.955-4.8,12.448-8.585,24.456-8.585s17.5,3.789,24.458,8.585C288.208,443.936,297,450,313.992,450s25.784-6.064,33.542-11.414c6.956-4.8,12.449-8.586,24.459-8.586s17.5,3.789,24.46,8.586C404.211,443.936,413,450,430,450s25.785-6.064,33.544-11.414c.844-.582,1.666-1.149,2.482-1.7A138.878,138.878,0,0,1,444.087,480Zm-70.794-96a27.951,27.951,0,0,0,0-24H468a12,12,0,0,1,0,24ZM464,344H296V328h27.093a31.385,31.385,0,0,0,20.919,8c.2,0,.4,0,.6-.006A31.806,31.806,0,0,0,365.061,328H448a47.774,47.774,0,0,0,16-2.752Zm-16-32H374.97a31.583,31.583,0,0,0,1.03-8V280.452a8.328,8.328,0,0,1,7.6-8.443A8,8,0,0,1,392,280a32.158,32.158,0,0,0,31.384,31.994,31.437,31.437,0,0,0,22.767-9.151A32.972,32.972,0,0,0,456,279.459V264a15.969,15.969,0,0,1,6.232-12.644A31.99,31.99,0,0,1,448,312Z" fill="#242424"/><path d="M288,184h16a8,8,0,0,0,0-16H288a8,8,0,0,0,0,16Z" fill="#242424"/><path d="M336,184h64a8,8,0,0,0,0-16H336a8,8,0,0,0,0,16Z" fill="#242424"/><circle cx="256" cy="128" r="8" fill="#242424"/><circle cx="256" cy="456" r="8" fill="#242424"/><circle cx="152" cy="456" r="8" fill="#242424"/><circle cx="352" cy="464" r="8" fill="#242424"/><circle cx="392" cy="456" r="8" fill="#242424"/><circle cx="104" cy="464" r="8" fill="#242424"/><circle cx="208" cy="112" r="8" fill="#242424"/><circle cx="390" cy="142" r="8" fill="#242424"/><circle cx="256" cy="76" r="8" transform="matrix(0.38268343236508984 -0.9238795325112867 0.9238795325112867 0.38268343236508984 87.94000244140625 284.0050048828125)" fill="#242424"/><circle cx="208" cy="168" r="8" fill="#242424"/><circle cx="152" cy="96" r="8" fill="#242424"/><circle cx="148" cy="148" r="8" fill="#242424"/><circle cx="99" cy="167" r="8" fill="#242424"/><circle cx="360" cy="104" r="8" fill="#242424"/><circle cx="312" cy="112" r="8" fill="#242424"/></g><g transform="matrix(0.13445478772105382 0.051541002376191976 -0.051541002376191976 0.13445478772105382 324.7740709517154 182.38507773510509)" id="L1_3"><path d="M488,32H222.624a24.039,24.039,0,0,0-38.658-9.9,23.942,23.942,0,0,0-31.966.03A23.977,23.977,0,0,0,113.376,32H72a8,8,0,0,0-8,8V88a8,8,0,0,0,8,8H91.693A54.007,54.007,0,0,1,78.2,118.542L74.542,122.2a22.142,22.142,0,0,0,13.474,37.692q1.107.11,2.207.108a22.056,22.056,0,0,0,15.634-6.487l.77-.771Q109.413,149.958,112,147V272.306c-26.537,6.913-55.26,19-55.964,38.951-.023.245-.036.493-.036.743a167.919,167.919,0,0,0,88,147.742V488a8,8,0,0,0,8,8H296a8,8,0,0,0,8-8V459.742A167.919,167.919,0,0,0,392,312v-.007c0-.063,0-.125-.007-.188-.143-16.049-17.879-29.046-52.735-38.631C308.367,264.679,267.434,260,224,260V96H488a8,8,0,0,0,8-8V40A8,8,0,0,0,488,32Zm-8,24H224V48H480ZM192,39.767A8,8,0,0,1,208,40V282.382a154.149,154.149,0,0,0-16-1.955ZM311.873,340.71c-.9-12.733-7-24.33-16.555-33.389,25.977,2.306,51.885,5.873,77.461,10.662C365.3,325.509,344.8,334.534,311.873,340.71Zm-15.9,2.607q-3.9.555-7.992,1.053c0-.124.015-.246.015-.37a32,32,0,0,0-64,0,32.527,32.527,0,0,0,.254,4H224q-16.817,0-31.819-.841A30.874,30.874,0,0,1,192,344c0-22.056,23.327-40,52-40C272.375,304,295.5,321.576,295.977,343.317Zm-55.521,4.461A16,16,0,1,1,272,344a16.281,16.281,0,0,1-.14,2.04Q257.166,347.3,240.456,347.778ZM180,296a145.82,145.82,0,0,1,25.057,2.134A63.905,63.905,0,0,0,188.244,312h-8.467a160.437,160.437,0,0,0-67.316,14.9A9.77,9.77,0,0,1,112,324c0-6.167,6.611-12.98,17.685-18.226C142.991,299.471,160.86,296,180,296ZM96.746,330.089c-10.5-4.039-17.7-8.263-21.518-12.1q11.34-2.124,22.77-3.927A26.084,26.084,0,0,0,96,324,25.6,25.6,0,0,0,96.746,330.089Zm82.092-2.075A46.758,46.758,0,0,0,176,344c0,.678.02,1.355.049,2.032a382.52,382.52,0,0,1-50.312-7.451A144.406,144.406,0,0,1,178.838,328.014ZM168,32a8.009,8.009,0,0,1,8,8V280.047c-5.446.127-10.8.518-16,1.152V40A8.009,8.009,0,0,1,168,32Zm-32,0a8.009,8.009,0,0,1,8,8V284.055a114.6,114.6,0,0,0-16,5.02V40A8.009,8.009,0,0,1,136,32ZM80,48h32v8H80Zm0,24h32v8H80Zm15.312,69.429-.77.771a6.144,6.144,0,0,1-9.455-.936,6.159,6.159,0,0,1,.768-7.75l3.659-3.659a70.018,70.018,0,0,0,18.412-32.52L108.26,96H112v23.718A105.993,105.993,0,0,1,95.312,141.429ZM112,295.812c-9.681,1.329-19.4,2.858-29.086,4.541C89.481,296.5,99.1,292.5,112,288.882ZM288,480H160V464H288Zm3.915-32H156.084a152.241,152.241,0,0,1-42.919-32H144v8a8,8,0,0,0,8,8h48a8,8,0,0,0,8-8v-8h32v8a8,8,0,0,0,8,8h48a8,8,0,0,0,8-8v-8h30.835A152.245,152.245,0,0,1,291.915,448Zm60.273-54.282c-1.533,2.4-3.147,4.739-4.805,7.04A7.959,7.959,0,0,0,344,400H296a8,8,0,0,0-8,8v8H256v-8a8,8,0,0,0-8-8H200a8,8,0,0,0-8,8v8H160v-8a8,8,0,0,0-8-8H104a7.959,7.959,0,0,0-3.383.758c-1.658-2.3-3.272-4.64-4.805-7.04A151.134,151.134,0,0,1,74.08,337.061q12.826,7.748,34.662,13.765C139.633,359.321,180.566,364,224,364s84.367-4.679,115.258-13.174q21.824-6,34.656-13.762A151.11,151.11,0,0,1,352.188,393.718Zm12.852-93.386A826.7,826.7,0,0,0,254.975,288.74a81.539,81.539,0,0,0-23.345.206c-.168-.08-.335-.161-.51-.229-2.3-.895-4.68-1.715-7.12-2.477V276C297.292,276,344.914,288.641,365.04,300.332ZM224,80V72H480v8Z" fill="#242424"/><path d="M88,248a24,24,0,1,0-24,24A24.027,24.027,0,0,0,88,248Zm-32,0a8,8,0,1,1,8,8A8.009,8.009,0,0,1,56,248Z" fill="#242424"/><path d="M272,224a24,24,0,1,0,24-24A24.027,24.027,0,0,0,272,224Zm32,0a8,8,0,1,1-8-8A8.009,8.009,0,0,1,304,224Z" fill="#242424"/><path d="M256,128a8,8,0,0,0-16,0v8a8,8,0,0,0,16,0Z" fill="#242424"/><path d="M248,160a8,8,0,0,0-8,8v32a8,8,0,0,0,16,0V168A8,8,0,0,0,248,160Z" fill="#242424"/></g><g transform="matrix(0.1210758384293505 -0.031045086315527447 0.031045086315527447 0.1210758384293505 199.17881554322184 284.71688298388557)" id="L1_4"><path d="m502 241h-24.555c2.149-6.409 2.446-13.07.716-19.52-2.8-10.485-10.673-18.852-21.61-23.553 4.407-11.047 4.063-22.525-1.362-31.931-5.431-9.397-15.197-15.436-26.969-17.142 1.399-11.818-1.908-22.815-9.584-30.481-7.674-7.684-18.673-10.996-30.49-9.594-1.707-11.77-7.746-21.539-17.149-26.973-9.4-5.422-20.878-5.766-31.923-1.358-4.7-10.938-13.064-18.81-23.544-21.608-10.486-2.812-21.662-.178-31.193 6.936-7.364-9.338-17.479-14.776-28.337-14.776s-20.972 5.438-28.335 14.777c-9.53-7.114-20.705-9.748-31.185-6.938-10.485 2.8-18.852 10.673-23.553 21.61-11.048-4.408-22.526-4.064-31.931 1.362-9.397 5.431-15.435 15.199-17.142 26.969-11.816-1.397-22.815 1.908-30.481 9.585-7.683 7.672-10.992 18.671-9.593 30.489-11.771 1.707-21.54 7.747-26.973 17.148-5.422 9.4-5.767 20.877-1.359 31.924-10.938 4.7-18.809 13.064-21.608 23.543-1.731 6.456-1.434 13.12.715 19.53h-24.555c-5.523 0-10 4.477-10 10 0 93.308 51.022 143.46 140 167.721v32.28c0 5.522 4.477 10 10 10h212c5.522 0 10-4.478 10-10v-32.279c88.988-24.264 140-74.343 140-167.721 0-5.523-4.478-10-10-10zm-448.839-14.359c1.735-6.496 8.863-11.313 18.601-12.573 7.642-.987 11.348-9.918 6.634-16.027-5.994-7.766-7.627-16.212-4.267-22.037 3.371-5.834 11.506-8.637 21.226-7.333 7.62 1.034 13.543-6.626 10.562-13.764-3.781-9.056-3.172-17.635 1.598-22.399 4.755-4.761 13.335-5.371 22.39-1.589 3.306 1.381 7.099.888 9.941-1.294 2.843-2.182 4.301-5.717 3.823-9.268-1.31-9.723 1.501-17.856 7.326-21.224 5.832-3.362 14.278-1.729 22.042 4.265 2.836 2.189 6.626 2.693 9.934 1.324 3.31-1.37 5.634-4.405 6.094-7.958 1.26-9.739 6.077-16.866 12.581-18.604 6.506-1.744 14.242 2.017 20.189 9.815 2.173 2.849 5.704 4.313 9.258 3.85 3.553-.468 6.583-2.802 7.944-6.117 3.728-9.072 10.226-14.708 16.963-14.708s13.235 5.636 16.959 14.707c1.36 3.315 4.392 5.649 7.944 6.117 3.563.467 7.086-1 9.258-3.85 5.947-7.798 13.681-11.56 20.199-9.813 6.495 1.735 11.313 8.862 12.572 18.602.459 3.553 2.783 6.588 6.093 7.958 3.31 1.368 7.1.864 9.935-1.324 7.764-5.993 16.211-7.629 22.036-4.269 5.833 3.371 8.643 11.505 7.334 21.228-.479 3.552.979 7.087 3.822 9.268 2.844 2.181 6.636 2.675 9.942 1.294 9.057-3.783 17.634-3.173 22.398 1.599 4.762 4.755 5.371 13.334 1.589 22.389-1.381 3.307-.888 7.1 1.294 9.942s5.716 4.306 9.268 3.822c9.725-1.307 17.858 1.5 21.224 7.326 3.363 5.832 1.729 14.278-4.265 22.044-2.188 2.835-2.693 6.625-1.324 9.935 1.37 3.31 4.405 5.634 7.958 6.093 9.739 1.26 16.866 6.077 18.603 12.582 1.209 4.508-.201 9.596-3.873 14.351h-397.934c-3.672-4.756-5.081-9.845-3.871-14.36zm298.839 214.359h-192v-20h192zm137.84-160h-33.84c-5.522 0-10 4.478-10 10s4.478 9.99 10 9.99l29.457.01c-2.05 7.03-4.586 13.717-7.598 20h-176.859c-5.522 0-10 4.478-10 10s4.478 10 10 9.99h164.74c-20.988 28.003-54.879 47.285-105.01 60.01h-209.46c-50.131-12.726-84.022-32.007-105.009-60h164.739c5.523 0 10-4.478 10-10s-4.477-10-10-10h-176.859c-3.012-6.282-5.548-12.969-7.598-20h29.457c5.523 0 10-4.478 10-10s-4.477-10-10-10h-33.84c-.97-6.391-1.623-13.07-1.937-20.01h471.553c-.313 6.94-.965 13.619-1.936 20.01z" fill="#242424"/><path d="m96 301h20c5.523 0 10-4.478 10-10s-4.477-10-10-10h-20c-5.523 0-10 4.478-10 10s4.477 10 10 10z" fill="#242424"/><path d="m156 301h20c5.523 0 10-4.478 10-10s-4.477-10-10-10h-20c-5.523 0-10 4.478-10 10s4.477 10 10 10z" fill="#242424"/><path d="m216 301h20c5.522 0 10-4.478 10-10s-4.478-10-10-10h-20c-5.523 0-10 4.478-10 10s4.477 10 10 10z" fill="#242424"/><path d="m276 301h20c5.522 0 10-4.478 10-10s-4.478-10-10-10h-20c-5.523 0-10 4.478-10 10s4.477 10 10 10z" fill="#242424"/><path d="m336 301h20c5.522 0 10-4.478 10-10s-4.478-10-10-10h-20c-5.522 0-10 4.478-10 10s4.478 10 10 10z" fill="#242424"/><path d="m396 301h20c5.522 0 10-4.478 10-10s-4.478-10-10-10h-20c-5.522 0-10 4.478-10 10s4.478 10 10 10z" fill="#242424"/><path d="m143.071 218.071 20-20c3.905-3.905 3.905-10.237 0-14.143-3.905-3.904-10.237-3.904-14.143 0l-20 20c-3.905 3.905-3.905 10.237 0 14.143 3.907 3.906 10.238 3.905 14.143 0z" fill="#242424"/><path d="m196 221h20c5.523 0 10-4.477 10-10s-4.477-10-10-10h-20c-5.523 0-10 4.477-10 10s4.477 10 10 10z" fill="#242424"/><path d="m368.929 198.071 20 20c3.907 3.906 10.236 3.904 14.143 0 3.905-3.905 3.905-10.237 0-14.143l-20-20c-3.906-3.904-10.236-3.904-14.143 0-3.906 3.906-3.906 10.238 0 14.143z" fill="#242424"/><path d="m256 141h20c5.522 0 10-4.477 10-10 0-5.522-4.478-10-10-10h-20c-5.523 0-10 4.478-10 10 0 5.523 4.477 10 10 10z" fill="#242424"/><path d="m196 161c5.523 0 10-4.477 10-10v-20c0-5.522-4.477-10-10-10s-10 4.478-10 10v20c0 5.523 4.477 10 10 10z" fill="#242424"/><path d="m263.071 198.071 20-20c3.905-3.905 3.905-10.237 0-14.143-3.906-3.904-10.236-3.904-14.143 0l-20 20c-3.905 3.905-3.905 10.237 0 14.143 3.908 3.906 10.237 3.905 14.143 0z" fill="#242424"/><path d="m336 161h20c5.522 0 10-4.477 10-10s-4.478-10-10-10h-20c-5.522 0-10 4.477-10 10s4.478 10 10 10z" fill="#242424"/><path d="m316 221h20c5.522 0 10-4.477 10-10s-4.478-10-10-10h-20c-5.522 0-10 4.477-10 10s4.478 10 10 10z" fill="#242424"/><circle cx="256" cy="331" r="10" fill="#242424"/></g><g transform="matrix(0.1171875 0 0 0.1171875 39 91)" id="L1_5"><path d="M247.531,208.129c-3.9-3.9-10.23-3.9-14.14,0c-3.9,3.91-3.9,10.24,0,14.14c3.91,3.91,10.24,3.91,14.14,0    C251.441,218.37,251.441,212.039,247.531,208.129z" fill="#242424"/><path d="M503.199,43.291L468.72,8.812c-9.753-9.752-24.827-11.609-36.658-4.514l-21.961,13.181    c-2.64,1.585-4.403,4.297-4.779,7.354c-0.376,3.056,0.677,6.115,2.854,8.292l2.056,2.056    c-36.306,29.606-74.206,49.866-109.972,67.351c-21.479,10.503-38.689,19.859-54.16,29.44    c-39.836,24.647-67.91,50.53-93.357,81.848c-0.585,0.734,2.107-3.209-37.425,56.016c-20.709,30.45-32.605,46.677-56.038,53.946    C10.562,338.91-8.082,379.528,3.179,409.516c5.548,14.805,19.7,33.131,43.263,56.024c22.601,23.252,41.456,37.815,56.043,43.288    c29.769,11.199,70.62-7.342,85.734-56.096c7.269-23.416,23.504-35.322,53.89-55.998c59.027-39.361,55.529-36.998,56.134-37.489    c31.853-25.391,58.549-55.814,81.593-92.988c0.078-0.114,0.154-0.231,0.227-0.351c9.688-15.681,18.759-32.38,29.407-54.145    c16.581-33.905,36.695-72.813,67.142-110.2l2.275,2.275c4.602,4.602,12.304,3.643,15.646-1.925l13.181-21.964    C514.809,68.118,512.952,53.045,503.199,43.291z M230.935,380.147c-32.326,21.995-52.606,36.981-61.818,66.659    c-11.776,37.988-40.76,50.383-59.597,43.299c-11.497-4.314-28.839-18.025-48.832-38.606c-0.068-0.07-0.137-0.139-0.207-0.207    c-26.358-25.593-35.525-40.661-38.576-48.802c-7.18-19.12,5.807-47.963,43.302-59.606c29.694-9.21,44.67-29.483,66.698-61.873    l30.163-45.207l114.148,114.148L230.935,380.147z M292.577,338.025L173.993,219.442c21.324-25.395,45.621-46.62,75.485-65.934    l109.033,109.033C339.223,292.366,317.996,316.666,292.577,338.025z M391.504,202.974c-8.025,16.402-15.105,29.803-22.233,42.039    L267.003,142.746c12.235-7.139,25.637-14.222,42.042-22.246c37.376-18.273,77.074-39.533,115.401-71.104l37.953,37.953    C429.904,126.834,408.816,167.573,391.504,202.974z M490.565,69.659l-6.59,10.98c-62.061-62.062-49.122-49.123-52.602-52.603    l10.977-6.588c3.946-2.367,8.973-1.748,12.226,1.506l34.48,34.48C492.31,60.689,492.93,65.717,490.565,69.659z" fill="#242424"/><path d="M304.104,264.7l-28.281-28.281c-3.905-3.903-10.237-3.903-14.142,0c-3.905,3.905-3.906,10.237,0,14.143l28.281,28.281    c3.906,3.905,10.237,3.905,14.142,0C308.009,274.938,308.01,268.606,304.104,264.7z" fill="#242424"/></g><g transform="matrix(0.12046810556922025 -0.04517554033825025 0.04517554033825025 0.12046810556922025 286.05428214227777 24.61575649628558)" id="L1_6"><path d="m196.488281 276.269531c-47.238281 0-85.671875 38.433594-85.671875 85.671875 0 47.238282 38.433594 85.671875 85.671875 85.671875 47.242188 0 85.671875-38.433593 85.671875-85.671875 0-47.238281-38.429687-85.671875-85.671875-85.671875zm0 156.34375c-38.96875 0-70.671875-31.703125-70.671875-70.671875s31.703125-70.671875 70.671875-70.671875c38.972657 0 70.675781 31.703125 70.675781 70.671875s-31.703124 70.671875-70.675781 70.671875zm0 0" fill="#242424"/><path d="m375.960938 167.765625h-.585938l17.117188-82.84375c1.261718-6.101563.011718-12.378906-3.429688-17.21875-3.222656-4.539063-8.019531-7.4375-13.5-8.164063l-28.882812-3.824218c-2.171876-.289063-4.335938-.203125-6.429688.191406l.253906-2.152344c.734375-6.246094-1.0625-12.476562-4.933594-17.085937-3.625-4.320313-8.6875-6.875-14.257812-7.191407l-21.386719-1.222656c.703125-6.074218-.929687-12.183594-4.539062-16.855468-3.472657-4.492188-8.421875-7.308594-13.933594-7.925782l-29.800781-3.34375c-5.507813-.621094-10.980469 1.019532-15.410156 4.613282-4.773438 3.871093-7.859376 9.714843-8.472657 16.03125l-2.710937 28.101562c-.71875-1.066406-1.527344-2.070312-2.429688-2.992188-3.960937-4.050781-9.195312-6.28125-14.742187-6.28125h-29.582031c-3.933594 0-7.695313 1.140626-10.96875 3.238282l-2.128907-22.066406c-.609375-6.316407-3.699219-12.160157-8.472656-16.03125-4.425781-3.59375-9.894531-5.230469-15.410156-4.613282l-29.800781 3.34375c-5.511719.617188-10.460938 3.433594-13.933594 7.925782-3.609375 4.671874-5.242188 10.78125-4.539063 16.855468l-21.386719 1.222656c-5.566406.316407-10.632812 2.871094-14.257812 7.191407-3.871094 4.609375-5.667969 10.839843-4.933594 17.085937l.253906 2.15625c-2.09375-.394531-4.253906-.484375-6.429687-.195312l-28.882813 3.824218c-5.480468.726563-10.273437 3.625-13.5 8.164063-3.441406 4.839844-4.691406 11.117187-3.429687 17.21875l17.117187 82.84375h-.585937c-5.027344 0-9.769531 2.203125-13.011719 6.050781-3.242187 3.847656-4.609375 8.898438-3.753906 13.851563l53.476562 310.210937c1.414063 8.183594 8.464844 14.121094 16.769532 14.121094h251.988281c8.304687 0 15.355469-5.9375 16.765625-14.121094l53.480469-310.210937c.855469-4.953125-.515625-10.003907-3.753907-13.851563-3.242187-3.847656-7.984374-6.050781-13.015624-6.050781zm-37.898438-93.230469c1.425781-2.65625 4.105469-4.296875 6.652344-3.949218l28.882812 3.820312c1.671875.222656 2.683594 1.199219 3.238282 1.984375 1.035156 1.457031 1.390624 3.460937.96875 5.496094l-17.742188 85.875h-10.964844l7.300782-57.664063c.738281-5.808594-.925782-11.632812-4.5625-15.976562-3.539063-4.234375-8.546876-6.722656-14.09375-7.007813l-1.15625-.058593zm-10.230469 27.089844 9.144531.46875c1.707032.089844 2.769532.949219 3.359376 1.652344.980468 1.171875 1.398437 2.757812 1.183593 4.464844l-7.542969 59.554687h-35.039062l4.054688-23.679687c.839843-4.902344-.144532-9.816407-2.730469-14.003907l1.785156-23.121093c.171875-2.246094 1.410156-4.222657 3.125-5.347657 1.027344-.671875 2.226563-1.039062 3.46875-.96875l19.179687.980469zm-37.238281-58.863281c.097656.003906.195312-.003907.296875.003906h.003906l29.566407 1.683594c1.789062.105469 2.960937 1.070312 3.625 1.859375 1.222656 1.460937 1.777343 3.535156 1.523437 5.691406l-2.300781 19.585938s-.003906.003906-.003906.007812l-1.726563 14.691406-12.171875-.621094c-11.414062-.585937-21.414062 8.449219-22.316406 20.140626l-1.148438 14.855468-7.015625-1.105468 4.8125-69.378907c.28125-4.117187 3.40625-7.441406 6.855469-7.414062zm-2.386719 98.792969-4.617187 26.972656c-4.890625 1.515625-8.898438 5.195312-10.824219 10.210937-5.859375 15.257813-16.0625 28.296875-29.507813 37.710938-1.441406 1.007812-2.910156 1.953125-4.402343 2.859375l12.058593-83.632813c.199219-1.394531.933594-2.621093 2.066407-3.453125 1.132812-.839844 2.519531-1.175781 3.910156-.957031l12.792969 2.015625c.003906 0 .011718 0 .019531.003906l14.171875 2.234375c1.390625.21875 2.609375.96875 3.429688 2.113281.820312 1.144532 1.140624 2.535157.902343 3.921876zm-62.246093 54.179687 16.738281-173.519531c.230469-2.34375 1.316406-4.464844 2.992187-5.824219.90625-.734375 2.394532-1.570313 4.289063-1.355469l29.804687 3.339844c1.847656.207031 3.050782 1.308594 3.730469 2.191406 1.277344 1.652344 1.820313 3.921875 1.484375 6.226563l-.261719 1.804687c-.125.039063-.246093.085938-.371093.125-.15625.050782-.3125.105469-.464844.160156-.46875.160157-.933594.335938-1.386719.53125-.117187.046876-.234375.097657-.351563.152344-.886718.394532-1.742187.847656-2.566406 1.359375-.074218.042969-.144531.089844-.21875.136719-.511718.328125-1.015625.675781-1.5 1.046875-.042968.03125-.085937.058594-.128906.09375-.261719.199219-.515625.40625-.765625.617187-.054687.046876-.109375.09375-.164063.140626-.429687.371093-.84375.753906-1.246093 1.15625-.101563.101562-.199219.199218-.300781.304687-.203126.210937-.410157.425781-.605469.648437-.214844.242188-.425781.488282-.628907.738282-.191406.234375-.375.46875-.558593.707031-.136719.183594-.269531.371094-.40625.558594-.171875.242187-.34375.492187-.511719.746093-.1875.289063-.371094.582032-.546875.878907-.109375.183593-.214844.367187-.316406.554687-.1875.335938-.367188.675782-.539063 1.023438-.078125.164062-.160156.332031-.234375.5-.164062.351562-.320312.710937-.46875 1.074218-.058593.148438-.117187.292969-.175781.441407-.171875.453125-.332031.914062-.480469 1.378906-.035156.113281-.066406.230469-.097656.347656-.128906.425781-.242187.859375-.347656 1.300781-.019531.09375-.046875.1875-.066407.285157-.113281.507812-.207031 1.023437-.289062 1.542969-.015625.117187-.035156.238281-.050781.355468-.074219.539063-.136719 1.085938-.175781 1.636719l-4.71875 68.070313-4.832032-.757813c-5.382812-.855469-10.765625.464844-15.148437 3.699219-4.386719 3.238281-7.230469 7.992187-8.007813 13.386718l-10.316406 71.574219zm-51.65625-139.371094c.78125-.804687 2.109374-1.761719 4-1.761719h29.582031c1.890625 0 3.226562.960938 4.015625 1.769532 1.382812 1.414062 2.148437 3.453125 2.101562 5.59375l-2.953125 129.726562-2.925781-56.039062c-.304688-5.84375-2.75-11.261719-6.882812-15.257813-4.285157-4.140625-9.820313-6.253906-15.609376-5.945312l-12.042968.636719-.253906-9.84375-1.105469-43.296876c-.054688-2.140624.703125-4.175781 2.074219-5.582031zm12.121093 73.0625c2.117188-.097656 3.664063 1.050781 4.390625 1.753907 1.398438 1.347656 2.226563 3.214843 2.332032 5.253906l4.941406 94.695312c-.53125.007813-1.066406.027344-1.601563.027344-12.65625 0-24.933593-2.871094-36.085937-8.378906l-8.519532-84.535156c-.207031-2.039063.363282-4.011719 1.5625-5.410157.683594-.792969 1.875-1.761719 3.6875-1.859375zm-76.964843-108.859375c.683593-.886718 1.886718-1.984375 3.734374-2.191406l29.800782-3.339844c1.902344-.214844 3.382812.621094 4.292968 1.355469 1.671876 1.359375 2.761719 3.480469 2.988282 5.824219l8.070312 83.671875.257813 9.992187-2.265625.117188c-5.550782.296875-10.621094 2.808594-14.28125 7.074218-3.855469 4.5-5.714844 10.574219-5.101563 16.675782l4.125 40.921875-9.304687-22.296875-7.574219-109.230469c-.039063-.550781-.101563-1.09375-.175781-1.632813-.015625-.121093-.035156-.238281-.050782-.359374-.082031-.519532-.175781-1.035157-.289062-1.546876-.019531-.085937-.042969-.175781-.0625-.261718-.105469-.453125-.222656-.894532-.351562-1.335938-.03125-.101562-.0625-.210937-.09375-.3125-.148438-.480468-.3125-.949218-.492188-1.414062-.046875-.125-.097656-.25-.148438-.375-.164062-.410156-.339843-.8125-.523437-1.207032-.035156-.078124-.066406-.15625-.105469-.226562-.207031-.4375-.433594-.859375-.667968-1.273438-.074219-.136718-.152344-.273437-.230469-.410156-.238281-.402344-.484375-.800781-.742188-1.183594-.070312-.105468-.144531-.207031-.21875-.3125-.214843-.3125-.4375-.617187-.667969-.914062-.09375-.125-.191406-.25-.285156-.371094-.285156-.355468-.578125-.699218-.882812-1.035156-.101563-.113281-.207032-.222656-.3125-.335938-.265625-.28125-.53125-.550781-.808594-.8125-.082031-.082031-.164062-.164062-.25-.246093-.339844-.316407-.6875-.617188-1.046875-.914063-.109375-.089844-.21875-.175781-.332031-.265625-.371094-.296875-.753906-.582031-1.140625-.855469-.050781-.03125-.101563-.0625-.148438-.09375-.378906-.257812-.765625-.503906-1.160156-.734374-.082031-.050782-.164063-.097657-.246094-.144532-.433593-.253906-.878906-.488281-1.332031-.707031-.050781-.027344-.105469-.050781-.15625-.074219-.472656-.222656-.949219-.433594-1.4375-.621094 0-.003906-.003906-.003906-.007812-.003906-.503907-.195312-1.019532-.371094-1.542969-.527344-.019531-.003906-.035157-.011718-.050781-.019531l-.265626-1.820312c-.332031-2.304688.207032-4.574219 1.484376-6.226563zm-40.566407 25.742188c.664063-.789063 1.832031-1.757813 3.625-1.855469l29.582031-1.691406h.019532c.035156 0 .074218.003906.109375 0 3.515625-.105469 6.722656 3.234375 7.011719 7.414062l4.507812 64.992188-3.722656-8.921875c-2.253906-5.394532-6.378906-9.675782-11.621094-12.046875-.648438-.296875-1.308594-.550781-1.972656-.78125-.039063-.011719-.078125-.027344-.117188-.042969-.640625-.214844-1.28125-.390625-1.929687-.546875-.0625-.011719-.128907-.03125-.191407-.046875-.632812-.144531-1.265624-.25-1.902343-.335938-.078125-.011718-.160157-.023437-.238281-.03125-.625-.074218-1.253907-.121093-1.878907-.136718-.089843 0-.175781-.003906-.261719-.007813-.105468 0-.210937-.007812-.3125-.007812-.332031 0-.660156.03125-.992187.046875-.28125.015625-.566406.019531-.847656.042968-.421875.039063-.839844.109376-1.261719.171876-.261719.042968-.527344.066406-.789062.117187-.457032.09375-.910157.214844-1.367188.335937-.214844.058594-.433594.101563-.652344.164063-.667968.203125-1.328125.4375-1.980468.710937l-8.976563 3.753907-1.355469-11.511719-4.011718-34.089844c-.25-2.160156.304687-4.234375 1.527343-5.695312zm-8.460937 72.695312 4.441406-1.859375 4.464844-1.863281h.003906l18.15625-7.59375c1.960938-.816406 3.800781-.242188 4.722656.171875 1.769532.804687 3.175782 2.28125 3.964844 4.164063l37.347656 89.496093c-5.613281-6.78125-10.117187-14.445312-13.316406-22.78125-2.558594-6.667969-8.800781-10.976562-15.902344-10.976562h-27.300781l-19.078125-40.148438c-.878906-1.851562-1.007812-3.898437-.347656-5.621093.136718-.367188.339844-.78125.621094-1.191407.472656-.683593 1.175781-1.359375 2.222656-1.796875zm-45.257813-37.117187c-.421875-2.035157-.070312-4.039063.964844-5.496094.558594-.78125 1.570313-1.761719 3.242187-1.980469l28.882813-3.824218c2.539063-.332032 5.222656 1.296874 6.652344 3.953124l1.585937 13.464844 1.835938 15.617188-3.691406 1.546875c-5.128907 2.144531-9.058594 6.214843-11.066407 11.464843-2.121093 5.535157-1.824219 11.882813.808594 17.417969l16.019531 33.714844h-27.492187zm362.773438 103.234375-23.6875 137.40625h-49.050781c-4.140626 0-7.5 3.355468-7.5 7.5 0 4.140625 3.359374 7.5 7.5 7.5h46.464843l-7.800781 45.242187h-37.675781c-4.144531 0-7.5 3.355469-7.5 7.5s3.355469 7.5 7.5 7.5h35.089843l-16.816406 97.558594c-.167968.96875-1.003906 1.671875-1.988281 1.671875h-251.988281c-.984375 0-1.820313-.703125-1.988282-1.671875l-16.816406-97.558594h35.089844c4.140625 0 7.5-3.355469 7.5-7.5s-3.359375-7.5-7.5-7.5h-37.675781l-7.800781-45.242187h46.695312c4.140625 0 7.5-3.359375 7.5-7.5 0-4.144532-3.359375-7.5-7.5-7.5h-49.28125l-23.6875-137.40625c-.132812-.765625.167969-1.3125.445312-1.640625.273438-.328125.765626-.71875 1.542969-.71875h87.296875c.839844 0 1.582032.53125 1.898438 1.351562 6.933594 18.058594 19.003906 33.488281 34.910156 44.621094 16.277344 11.398437 35.425781 17.421875 55.367188 17.421875 1.023437 0 2.058593-.023438 3.105468-.058594.488282-.015625.980469-.035156 1.472656-.058594.429688-.023437.863282-.046874 1.296876-.074218 4.5625-.273438 9.066406-.859375 13.496093-1.761719.015625-.003906.027344-.003906.039063-.007813 12.855468-2.617187 25.050781-7.828124 35.953125-15.460937 15.90625-11.132813 27.976562-26.5625 34.910156-44.621094.316406-.820312 1.0625-1.351562 1.898437-1.351562h87.300782c.773437 0 1.265625.390625 1.539062.714843.277344.332032.574219.878907.445313 1.644532zm0 0" fill="#242424"/></g><g transform="matrix(0.14485804736614227 0 0 0.14485804736614227 118.91698873648204 -2.129276297502713)" id="L1_7"><path d="m243.223 287.703c-29.785 0-54.016 24.231-54.016 54.016v15.368c0 8.06 6.557 14.616 14.616 14.616h78.8c8.06 0 14.616-6.557 14.616-14.616v-15.368c0-29.785-24.231-54.016-54.016-54.016zm0 15c7.615 0 14.721 2.201 20.732 5.988l-23.055 15.37c-5.784-3.399-12.512-5.358-19.693-5.358h-9.462c7.106-9.692 18.567-16 31.478-16zm-39.016 54v-14.984c0-.676.017-1.351.052-2.023.001-.024.004-.047.005-.07.107-1.996.365-3.974.775-5.923h16.167c12.898 0 23.453 10.229 23.979 23zm78.032 0h-22.058c-.212-8.349-3.048-16.058-7.73-22.316l22.66-15.107c4.483 6.352 7.128 14.09 7.128 22.439z" fill="#242424"/><path d="m499.5 388.718h-44.439c6.377-8.932 10.146-19.845 10.146-31.632v-15.368c0-18.847-5.559-37.032-16.075-52.589-2.319-3.432-6.981-4.334-10.414-2.013-3.432 2.319-4.333 6.982-2.013 10.414 8.833 13.067 13.501 28.348 13.501 44.189v15.368c0 12.911-6.21 24.396-15.799 31.632h-107.311c3.633-5.096 6.418-10.835 8.139-17.016h44.756 30.599c8.06 0 14.616-6.557 14.616-14.616v-15.368c0-29.785-24.231-54.016-54.016-54.016-16.297 0-30.927 7.259-40.839 18.709-3.296-8.104-7.703-15.639-13.011-22.438 14.121-13.182 33.053-21.271 53.849-21.271 15.15 0 29.888 4.321 42.62 12.497 3.485 2.237 8.125 1.228 10.363-2.259 2.238-3.485 1.227-8.125-2.259-10.363-15.154-9.731-32.694-14.875-50.725-14.875-24.694 0-47.191 9.575-63.984 25.202-16.792-15.627-39.288-25.202-63.983-25.202-8.478 0-16.697 1.129-24.515 3.243.021-.619.047-1.236.047-1.859v-7.85l257.49-148.662c5.79-3.342 7.781-10.772 4.438-16.563l-20.371-35.29c-1.619-2.806-4.234-4.813-7.363-5.65-3.128-.84-6.396-.408-9.201 1.211l-243.98 140.861c-17.176-22.724-44.411-37.442-75.026-37.442-51.841 0-94.016 42.175-94.016 94.016v15.368c0 30.115 24.501 54.616 54.616 54.616h71.91c-5.165 11.63-8.043 24.492-8.043 38.016v15.368c0 11.787 3.769 22.7 10.146 31.632h-146.853c-6.893 0-12.5 5.607-12.5 12.5v24.77c0 6.893 5.607 12.5 12.5 12.5h43.613v26.36c0 6.893 5.607 12.5 12.5 12.5h89.387c4.142 0 7.5-3.358 7.5-7.5s-3.358-7.5-7.5-7.5h-86.887v-23.86h275.887c4.142 0 7.5-3.358 7.5-7.5s-3.358-7.5-7.5-7.5h-332v-19.77h482v19.77h-115c-4.142 0-7.5 3.358-7.5 7.5s3.358 7.5 7.5 7.5h58.887v23.86h-247.887c-4.142 0-7.5 3.358-7.5 7.5s3.358 7.5 7.5 7.5h250.387c6.893 0 12.5-5.607 12.5-12.5v-26.36h43.613c6.893 0 12.5-5.607 12.5-12.5v-24.77c0-6.892-5.607-12.5-12.5-12.5zm-89.293-46.999v14.984h-22.058c-.212-8.349-3.048-16.058-7.73-22.316l22.66-15.107c4.484 6.352 7.128 14.09 7.128 22.439zm-39.016-39.016c7.615 0 14.721 2.201 20.732 5.988l-23.055 15.37c-5.784-3.399-12.512-5.358-19.693-5.358h-9.462c7.106-9.692 18.567-16 31.478-16zm-22.016 31c12.898 0 23.453 10.229 23.979 23h-35.915v-14.984c0-2.7-.121-5.373-.345-8.016zm99.581-282.992 5 8.66-181.98 105.066-59.706 34.471c-1.249-3.122-2.67-6.156-4.234-9.103zm-239.027 166.869 51.972-30.006 199.555-115.213 5 8.66-319.564 184.5c-1.157.667-2.504.846-3.793.5-1.29-.345-2.368-1.173-3.036-2.33-1.378-2.388-.558-5.452 1.83-6.83zm-87.313-1.519c-5.784-3.399-12.512-5.358-19.693-5.358h-9.462c7.106-9.692 18.566-16 31.478-16 7.615 0 14.721 2.201 20.732 5.988zm4.287 32.642h-40.98v-14.984c0-.676.017-1.351.052-2.023.001-.024.004-.047.005-.07.107-1.996.365-3.974.775-5.923h16.167c12.9 0 23.454 10.228 23.981 23zm29.925-37.423c3.277 4.643 5.565 10.028 6.563 15.849l-22.657 13.081c-1.268-5.072-3.522-9.755-6.565-13.823zm-110.905 37.807v-15.368c0-43.57 35.446-79.016 79.016-79.016 34.01 0 63.052 21.605 74.167 51.805l-22.134 12.779c-6.328-22.797-27.247-39.585-52.033-39.585-29.785 0-54.016 24.231-54.016 54.016v15.368c0 8.06 6.557 14.616 14.616 14.616h39.014c.321 2.567 1.147 5.111 2.52 7.488 2.671 4.626 6.984 7.936 12.144 9.319 1.723.461 3.471.69 5.208.69 3.466 0 6.886-.909 9.968-2.688l49.542-28.603c-.441 21.465-18.027 38.794-39.596 38.794h-78.8c-21.844.001-39.616-17.771-39.616-39.615zm118.484 108v-15.368c0-14.193 3.785-27.507 10.368-39.028 18.933-3.68 34.407-17.161 40.892-34.937 8.64-3.258 17.99-5.051 27.756-5.051 43.57 0 79.016 35.446 79.016 79.016v15.368c0 12.911-6.21 24.396-15.799 31.632h-126.434c-9.589-7.237-15.799-18.722-15.799-31.632z" fill="#242424"/></g><g transform="matrix(0.14905718706874885 -0.042997265920345244 0.042997265920345244 0.14905718706874885 10.651201748181855 286.45432841171294)" id="L1_8"><path d="m502.716 208.98a29.958 29.958 0 0 0 -7.11-8.1 14.056 14.056 0 0 1 -5.162-8.629 29.953 29.953 0 0 0 -3.774-10.094c-4.7-7.853-12.74-18.22-28.246-17.55-6.865.3-12.742-2.334-15.714-7.031-.374-.591-.778-1.168-1.2-1.718-5.8-7.5-19.6-18.6-48.437-12.785a16.75 16.75 0 0 0 -24.534-9.2 5.98 5.98 0 0 0 -.524.351l-134.988 101.306 10.873-139.743c.013-.155.018-.31.018-.466a14.932 14.932 0 0 0 -14.191-14.921c-4.131-.207-8.169-.278-12.134-.244-6.385-15.665-17.435-23.985-33.687-25.352q-.712-.06-1.417-.078c-5.941-.156-11.243-3.756-14.548-9.877-6.512-12.063-17.573-19.265-29.589-19.265a29.972 29.972 0 0 0 -10.6 1.942 14.073 14.073 0 0 1 -10.064 0 29.963 29.963 0 0 0 -10.6-1.942c-9.153 0-22.177 1.579-29.564 15.226-3.271 6.042-8.543 9.732-14.1 9.871-.7.017-1.4.068-2.092.151-20.362 2.428-30.788 20.909-35.832 34.989a16.749 16.749 0 0 0 -20.5 16.33 6.028 6.028 0 0 0 .033.63l39.1 370.186a15 15 0 0 0 14.955 13.453h140.5a15.117 15.117 0 0 0 14.23-10.22l282.782-140.643c.138-.069.274-.143.405-.222a14.926 14.926 0 0 0 5.533-19.839q-2.909-5.466-6.006-10.521c10.181-13.519 11.64-27.272 4.47-41.924-.207-.426-.428-.844-.658-1.251-2.913-5.175-2.543-11.57 1.017-17.545 7.015-11.778 7.522-24.965 1.355-35.275zm-46.089 2.561c-12.351-19.295-38.318-26.981-59.845-19.3q.059-1.954.089-3.846c23.363-10.783 51.37-2.1 65.027 20.733 10.1 16.892 7.06 39.446-1.276 54.779q-1.661-1.263-3.351-2.456c6.92-14.245 9.34-34.312-.644-49.91zm-10.107 6.468c5.415 8.461 6.95 23.239.559 37.02q-4.442-2.472-9.071-4.5c.226.022.452.043.681.043a7.182 7.182 0 1 0 -4.534-1.65q-3.8-1.5-7.725-2.718c-1.352-10.2-5.431-17.617-12.161-22.07-6.46-4.274-13.949-4.725-19.683-4.163q.941-7.461 1.465-14.338c17.188-9.133 40.143-3.755 50.469 12.376zm-53.734 14.325c3.819-.761 10.176-1.324 14.9 1.83 2.719 1.815 4.681 4.787 5.872 8.869a124.756 124.756 0 0 0 -22.346-2.027c.572-2.939 1.103-5.837 1.574-8.672zm-330.041-169.591c.32-.038.647-.061.971-.07 9.909-.248 19.014-6.287 24.355-16.154 3.437-6.349 8.945-8.939 19.012-8.939a18 18 0 0 1 6.372 1.172 25.909 25.909 0 0 0 18.525 0 18 18 0 0 1 6.372-1.172c7.533 0 14.646 4.847 19.029 12.965 5.319 9.855 14.592 15.905 24.794 16.173.239.006.478.019.721.04 10.13.852 17.052 5.236 21.731 13.943a146.9 146.9 0 0 0 -29.034 5.173c-10.633-23.087-32.408-37.2-58.069-37.2-30.973 0-56.7 21.571-62.328 50.607-7.087-3.917-13.334-6.918-18.475-9.158 3.668-10.232 11.542-25.649 26.024-27.38zm72.377 28.408a7.077 7.077 0 1 0 2.3 13.762q-3.522 2.711-6.832 5.711c-11.23-2.8-20.708-1.889-28.2 2.764a28.39 28.39 0 0 0 -9.936 10.725q-6.011-4.712-11.723-8.74a39.791 39.791 0 0 1 10.493-24.433c7-7.664 16.488-12.225 26.038-12.514 10.026-.279 23.507 5.974 32.065 18.516q-4.389 2.537-8.5 5.458a7.063 7.063 0 0 0 -5.7-11.249zm-14.634 29.943a125.568 125.568 0 0 0 -11.874 16.57q-3.326-2.979-6.595-5.75a17.349 17.349 0 0 1 6.809-8.395c3.121-1.904 7.026-2.707 11.66-2.425zm-3.588-54.662c-12.774.386-25.361 6.37-34.536 16.417a52.567 52.567 0 0 0 -12.739 25.033q-1.658-1.059-3.272-2.06c2.725-25.577 24.557-45.147 51.173-45.147a50.953 50.953 0 0 1 46.636 29.1q-2.064.822-4.079 1.715c-8.675-13.245-24.644-25.612-43.183-25.058zm-70.721 311.659-1.028-9.731a5.291 5.291 0 0 1 1.028 9.731zm164.583-11.1c.008-.141.021-.282.021-.426a7.378 7.378 0 1 0 -.056.866l-8.107 104.2a3.05 3.05 0 0 1 -3.028 2.8h-140.504a3.03 3.03 0 0 1 -3.021-2.714l-8.595-81.377a17.321 17.321 0 0 0 -3.613-34.209l-26.853-254.231a4.7 4.7 0 0 1 2.03-3.65 4.647 4.647 0 0 1 4.31-.572c14.379 5.244 52.321 22.074 93.975 65.005 42.864 44.177 75.228 100.97 96.2 168.815zm-84.828-212.668q-4.182-4.311-8.317-8.291c13.505-23.418 32.94-39.421 57.829-47.6 20.7-6.8 40.551-6.714 53.68-6.054a2.941 2.941 0 0 1 2.789 2.769l-11.6 149.082a7.331 7.331 0 1 0 -.474 6.095l-3.949 50.749c-21.386-57.917-51.572-107.188-89.958-146.75zm89.466 307.677 16.383-210.539 143.13-107.409a4.719 4.719 0 0 1 4.185-.133 4.643 4.643 0 0 1 2.7 3.4c2.877 15.033 7.9 56.236-7.583 114.029-15.935 59.484-48.1 116.41-95.6 169.22zm275.591-137.057-134.068 66.678a7.332 7.332 0 1 0 -5.592 2.608c.134 0 .268-.019.4-.027l-45.77 22.763c38.754-48.065 65.573-99.252 79.841-152.512q1.562-5.827 2.857-11.439c27.035-.425 50.747 8.026 70.536 25.178 16.465 14.27 26.573 31.341 32.744 42.941a2.937 2.937 0 0 1 -.948 3.81zm-1.1-57.255c.117.209.229.421.335.638 4.469 9.131 4.252 17.323-.833 25.81a146.878 146.878 0 0 0 -19.43-22.372c11.147-18.8 15.287-46.984 2.237-68.8-15.894-26.571-47.621-37.575-75.439-27.5-.275-8.091-.9-14.983-1.619-20.543 10.669-2.1 27.955-3.265 36.875 8.273.2.253.383.52.557.8 5.3 8.374 15.15 13.088 26.37 12.6 7.222-.318 12.268 3.086 17.433 11.721a17.985 17.985 0 0 1 2.263 6.065 25.888 25.888 0 0 0 9.508 15.894 18.02 18.02 0 0 1 4.275 4.865c3.864 6.46 3.353 15.048-1.369 22.972-5.74 9.629-6.176 20.689-1.168 29.577z" fill="#242424"/><path d="m409.1 219.182a7.115 7.115 0 0 0 1.738.217 7.1 7.1 0 1 0 -1.738-.217z" fill="#242424"/><path d="m431.648 227.9a7.075 7.075 0 1 0 -6.086-3.443 7.033 7.033 0 0 0 6.086 3.443z" fill="#242424"/><path d="m300.139 219.065a17.06 17.06 0 0 0 17.511 29.283 17.06 17.06 0 1 0 -17.511-29.283zm13.666 15.875a5.017 5.017 0 0 1 -2.311 3.107 5.057 5.057 0 1 1 1.747-6.935 5.016 5.016 0 0 1 .564 3.828z" fill="#242424"/><path d="m251.192 312.711a17.339 17.339 0 1 0 23.781 5.982 17.227 17.227 0 0 0 -23.781-5.982zm14.078 16.181a5.305 5.305 0 0 1 -2.437 3.276 5.346 5.346 0 0 1 -7.326-1.841 5.339 5.339 0 1 1 9.764-1.435z" fill="#242424"/><path d="m435.734 304.891a16.54 16.54 0 0 0 16.977 28.391 16.54 16.54 0 1 0 -16.978-28.391zm12.9 15.3a4.538 4.538 0 1 1 -.506-3.434 4.509 4.509 0 0 1 .502 3.436z" fill="#242424"/><path d="m357.3 169.625a7.334 7.334 0 1 0 1.972 13.412 7.335 7.335 0 0 0 -1.974-13.411z" fill="#242424"/><path d="m313.237 309.908a7.336 7.336 0 1 0 10.055 2.532 7.287 7.287 0 0 0 -10.055-2.532z" fill="#242424"/><path d="m239.548 433.51a7.336 7.336 0 0 0 7.527 12.594h.006a7.336 7.336 0 1 0 -7.533-12.59z" fill="#242424"/><path d="m262.34 364.23a7.335 7.335 0 1 0 -3.578 14.228 7.387 7.387 0 0 0 1.8.225 7.292 7.292 0 0 0 3.751-1.042 7.335 7.335 0 0 0 -1.977-13.409z" fill="#242424"/><path d="m392.616 309.643a7.337 7.337 0 1 0 1.976 13.409 7.335 7.335 0 0 0 -1.977-13.408z" fill="#242424"/><path d="m444.851 291.814a7.334 7.334 0 1 0 -6.308-3.567 7.289 7.289 0 0 0 6.308 3.567z" fill="#242424"/><path d="m94.06 99.048a7.077 7.077 0 1 0 7.077 7.077 7.086 7.086 0 0 0 -7.077-7.077z" fill="#242424"/><path d="m112.045 85.56a7.077 7.077 0 1 0 7.078 7.077 7.085 7.085 0 0 0 -7.078-7.077z" fill="#242424"/><path d="m60.119 187.483a17.058 17.058 0 1 0 17.064 17.058 17.08 17.08 0 0 0 -17.064-17.058zm0 22.116a5.058 5.058 0 1 1 5.064-5.058 5.067 5.067 0 0 1 -5.064 5.059z" fill="#242424"/><path d="m98.354 294.586a17.341 17.341 0 1 0 17.34-17.335 17.357 17.357 0 0 0 -17.34 17.335zm22.681 0a5.341 5.341 0 1 1 -5.341-5.335 5.345 5.345 0 0 1 5.341 5.335z" fill="#242424"/><path d="m219.427 132.263a16.544 16.544 0 1 0 -16.544 16.537 16.56 16.56 0 0 0 16.544-16.537zm-16.544 4.537a4.539 4.539 0 1 1 4.544-4.539 4.546 4.546 0 0 1 -4.544 4.539z" fill="#242424"/><path d="m35.119 127.986a7.336 7.336 0 1 0 7.336 7.336 7.344 7.344 0 0 0 -7.336-7.336z" fill="#242424"/><path d="m105.156 237.278a7.336 7.336 0 1 0 -7.336-7.335 7.344 7.344 0 0 0 7.336 7.335z" fill="#242424"/><path d="m53.617 319.292a7.336 7.336 0 1 0 7.336 7.336 7.345 7.345 0 0 0 -7.336-7.336z" fill="#242424"/><path d="m83.583 439.1a7.336 7.336 0 1 0 7.336 7.336 7.344 7.344 0 0 0 -7.336-7.336z" fill="#242424"/><path d="m173.481 169.538a7.336 7.336 0 1 0 7.336 7.335 7.344 7.344 0 0 0 -7.336-7.335z" fill="#242424"/><circle cx="173" cy="113" r="7" transform="matrix(1 -0.012 0.012 1 -1.344 2.073)" fill="#242424"/><path d="m179.88 463.989a17.329 17.329 0 1 0 -14.911-8.433 17.244 17.244 0 0 0 14.911 8.433zm-5.208-18.632a5.341 5.341 0 1 1 7.922 5.879 5.338 5.338 0 0 1 -7.921-5.879z" fill="#242424"/><path d="m109.452 371.67a7.336 7.336 0 0 0 1.976 13.409 7.411 7.411 0 0 0 1.8.225 7.337 7.337 0 1 0 -3.78-13.634z" fill="#242424"/><path d="m181.351 295.227a7.385 7.385 0 0 0 1.8.224 7.357 7.357 0 1 0 -1.8-.224z" fill="#242424"/></g></defs><g fi:class="KUsePattern"><pattern id="pattern_L1_0" width="350" height="350" patternUnits="userSpaceOnUse"><use xlink:href="#L1_0" x="-350" y="-350"/><use xlink:href="#L1_0" x="0" y="-350"/><use xlink:href="#L1_0" x="350" y="-350"/><use xlink:href="#L1_0" x="-350" y="0"/><use xlink:href="#L1_0" x="0" y="0"/><use xlink:href="#L1_0" x="350" y="0"/><use xlink:href="#L1_0" x="-350" y="350"/><use xlink:href="#L1_0" x="0" y="350"/><use xlink:href="#L1_0" x="350" y="350"/></pattern><rect x="0" y="0" width="100%" height="100%" fill="url(#pattern_L1_0)"/></g><g fi:class="KUsePattern"><pattern id="pattern_L1_2" width="350" height="350" patternUnits="userSpaceOnUse"><use xlink:href="#L1_2" x="-350" y="-350"/><use xlink:href="#L1_2" x="0" y="-350"/><use xlink:href="#L1_2" x="350" y="-350"/><use xlink:href="#L1_2" x="-350" y="0"/><use xlink:href="#L1_2" x="0" y="0"/><use xlink:href="#L1_2" x="350" y="0"/><use xlink:href="#L1_2" x="-350" y="350"/><use xlink:href="#L1_2" x="0" y="350"/><use xlink:href="#L1_2" x="350" y="350"/></pattern><rect x="0" y="0" width="100%" height="100%" fill="url(#pattern_L1_2)"/></g><g fi:class="KUsePattern"><pattern id="pattern_L1_3" width="350" height="350" patternUnits="userSpaceOnUse"><use xlink:href="#L1_3" x="-350" y="-350"/><use xlink:href="#L1_3" x="0" y="-350"/><use xlink:href="#L1_3" x="350" y="-350"/><use xlink:href="#L1_3" x="-350" y="0"/><use xlink:href="#L1_3" x="0" y="0"/><use xlink:href="#L1_3" x="350" y="0"/><use xlink:href="#L1_3" x="-350" y="350"/><use xlink:href="#L1_3" x="0" y="350"/><use xlink:href="#L1_3" x="350" y="350"/></pattern><rect x="0" y="0" width="100%" height="100%" fill="url(#pattern_L1_3)"/></g><g fi:class="KUsePattern"><pattern id="pattern_L1_4" width="350" height="350" patternUnits="userSpaceOnUse"><use xlink:href="#L1_4" x="-350" y="-350"/><use xlink:href="#L1_4" x="0" y="-350"/><use xlink:href="#L1_4" x="350" y="-350"/><use xlink:href="#L1_4" x="-350" y="0"/><use xlink:href="#L1_4" x="0" y="0"/><use xlink:href="#L1_4" x="350" y="0"/><use xlink:href="#L1_4" x="-350" y="350"/><use xlink:href="#L1_4" x="0" y="350"/><use xlink:href="#L1_4" x="350" y="350"/></pattern><rect x="0" y="0" width="100%" height="100%" fill="url(#pattern_L1_4)"/></g><g fi:class="KUsePattern"><pattern id="pattern_L1_5" width="350" height="350" patternUnits="userSpaceOnUse"><use xlink:href="#L1_5" x="-350" y="-350"/><use xlink:href="#L1_5" x="0" y="-350"/><use xlink:href="#L1_5" x="350" y="-350"/><use xlink:href="#L1_5" x="-350" y="0"/><use xlink:href="#L1_5" x="0" y="0"/><use xlink:href="#L1_5" x="350" y="0"/><use xlink:href="#L1_5" x="-350" y="350"/><use xlink:href="#L1_5" x="0" y="350"/><use xlink:href="#L1_5" x="350" y="350"/></pattern><rect x="0" y="0" width="100%" height="100%" fill="url(#pattern_L1_5)"/></g><g fi:class="KUsePattern"><pattern id="pattern_L1_6" width="350" height="350" patternUnits="userSpaceOnUse"><use xlink:href="#L1_6" x="-350" y="-350"/><use xlink:href="#L1_6" x="0" y="-350"/><use xlink:href="#L1_6" x="350" y="-350"/><use xlink:href="#L1_6" x="-350" y="0"/><use xlink:href="#L1_6" x="0" y="0"/><use xlink:href="#L1_6" x="350" y="0"/><use xlink:href="#L1_6" x="-350" y="350"/><use xlink:href="#L1_6" x="0" y="350"/><use xlink:href="#L1_6" x="350" y="350"/></pattern><rect x="0" y="0" width="100%" height="100%" fill="url(#pattern_L1_6)"/></g><g fi:class="KUsePattern"><pattern id="pattern_L1_7" width="350" height="350" patternUnits="userSpaceOnUse"><use xlink:href="#L1_7" x="-350" y="-350"/><use xlink:href="#L1_7" x="0" y="-350"/><use xlink:href="#L1_7" x="350" y="-350"/><use xlink:href="#L1_7" x="-350" y="0"/><use xlink:href="#L1_7" x="0" y="0"/><use xlink:href="#L1_7" x="350" y="0"/><use xlink:href="#L1_7" x="-350" y="350"/><use xlink:href="#L1_7" x="0" y="350"/><use xlink:href="#L1_7" x="350" y="350"/></pattern><rect x="0" y="0" width="100%" height="100%" fill="url(#pattern_L1_7)"/></g><g fi:class="KUsePattern"><pattern id="pattern_L1_8" width="350" height="350" patternUnits="userSpaceOnUse"><use xlink:href="#L1_8" x="-350" y="-350"/><use xlink:href="#L1_8" x="0" y="-350"/><use xlink:href="#L1_8" x="350" y="-350"/><use xlink:href="#L1_8" x="-350" y="0"/><use xlink:href="#L1_8" x="0" y="0"/><use xlink:href="#L1_8" x="350" y="0"/><use xlink:href="#L1_8" x="-350" y="350"/><use xlink:href="#L1_8" x="0" y="350"/><use xlink:href="#L1_8" x="350" y="350"/></pattern><rect x="0" y="0" width="100%" height="100%" fill="url(#pattern_L1_8)"/></g></svg>